<svg width="17" height="17" viewBox="0 0 17 17" fill="none" xmlns="http://www.w3.org/2000/svg">
<path d="M12.75 2.125C13.9236 2.125 14.875 3.07639 14.875 4.25V12.75C14.875 13.9236 13.9236 14.875 12.75 14.875H4.25C3.07639 14.875 2.125 13.9236 2.125 12.75V4.25C2.125 3.07639 3.07639 2.125 4.25 2.125H12.75ZM11.666 5.64518L7.08333 10.2279L5.33398 8.47852C5.12652 8.27105 4.79015 8.27105 4.58268 8.47852C4.37522 8.68598 4.37522 9.02235 4.58268 9.22982L6.70768 11.3548C6.91515 11.5623 7.25152 11.5623 7.45898 11.3548L12.4173 6.39648C12.6248 6.18902 12.6248 5.85265 12.4173 5.64518C12.2099 5.43772 11.8735 5.43772 11.666 5.64518Z" fill="#00BE13"/>
</svg>
